<svg width="316" height="142" viewBox="0 0 316 142" fill="none" xmlns="http://www.w3.org/2000/svg">
<ellipse cx="99" cy="47" rx="50" ry="47" fill="#EF476F"/>
<ellipse cx="99" cy="47" rx="30.8219" ry="30.6522" fill="white"/>
<rect x="89" y="27" width="41.0959" height="10.8986" fill="white"/>
<path d="M2.07741 136V117.091H8.81747C10.2886 117.091 11.5073 117.359 12.4737 117.894C13.4401 118.43 14.1634 119.162 14.6435 120.092C15.1236 121.015 15.3636 122.055 15.3636 123.212C15.3636 124.376 15.1205 125.422 14.6342 126.352C14.1541 127.275 13.4278 128.007 12.4553 128.549C11.4889 129.085 10.2732 129.352 8.80824 129.352H4.1733V126.933H8.54972C9.47917 126.933 10.2332 126.773 10.8118 126.453C11.3904 126.127 11.8151 125.684 12.0859 125.124C12.3568 124.563 12.4922 123.926 12.4922 123.212C12.4922 122.498 12.3568 121.864 12.0859 121.31C11.8151 120.756 11.3873 120.322 10.8026 120.009C10.224 119.695 9.4607 119.538 8.51278 119.538H4.9304V136H2.07741ZM18.7083 136V117.091H25.4483C26.9133 117.091 28.129 117.343 29.0953 117.848C30.0679 118.353 30.7942 119.051 31.2743 119.944C31.7544 120.83 31.9945 121.855 31.9945 123.018C31.9945 124.176 31.7514 125.194 31.2651 126.075C30.785 126.949 30.0587 127.629 29.0861 128.115C28.1197 128.601 26.9041 128.844 25.4391 128.844H20.3333V126.388H25.1806C26.1039 126.388 26.8548 126.256 27.4334 125.991C28.0182 125.727 28.446 125.342 28.7168 124.837C28.9876 124.333 29.123 123.726 29.123 123.018C29.123 122.304 28.9846 121.686 28.7076 121.163C28.4367 120.639 28.0089 120.239 27.4242 119.962C26.8456 119.679 26.0854 119.538 25.1436 119.538H21.5613V136H18.7083ZM28.0428 127.469L32.7147 136H29.4647L24.8851 127.469H28.0428ZM35.4661 136V117.091H47.3212V119.547H38.3191V125.308H46.7026V127.755H38.3191V133.544H47.432V136H35.4661ZM58.013 136V117.091H69.7388V119.547H60.8659V125.308H68.8986V127.755H60.8659V136H58.013ZM73.2473 136V117.091H76.1003V133.544H84.6685V136H73.2473ZM90.7761 117.091V136H87.9231V117.091H90.7761ZM107.728 123.065C107.549 122.504 107.309 122.003 107.008 121.56C106.712 121.11 106.358 120.729 105.946 120.415C105.533 120.095 105.063 119.852 104.533 119.685C104.01 119.519 103.434 119.436 102.807 119.436C101.742 119.436 100.782 119.71 99.926 120.258C99.0704 120.806 98.3933 121.609 97.8947 122.668C97.4023 123.72 97.1561 125.01 97.1561 126.536C97.1561 128.069 97.4054 129.365 97.9039 130.423C98.4025 131.482 99.0858 132.285 99.9537 132.833C100.822 133.381 101.809 133.655 102.917 133.655C103.945 133.655 104.841 133.446 105.604 133.027C106.374 132.608 106.968 132.018 107.386 131.254C107.811 130.485 108.023 129.58 108.023 128.54L108.762 128.678H103.351V126.324H110.784V128.475C110.784 130.063 110.445 131.442 109.768 132.612C109.097 133.775 108.168 134.674 106.98 135.308C105.798 135.942 104.444 136.259 102.917 136.259C101.206 136.259 99.7044 135.865 98.4118 135.077C97.1253 134.289 96.122 133.172 95.4018 131.725C94.6816 130.272 94.3216 128.549 94.3216 126.555C94.3216 125.047 94.5308 123.692 94.9494 122.492C95.368 121.292 95.9558 120.273 96.7129 119.436C97.4761 118.593 98.3717 117.95 99.3997 117.506C100.434 117.057 101.563 116.832 102.788 116.832C103.81 116.832 104.761 116.983 105.641 117.285C106.528 117.586 107.315 118.014 108.005 118.568C108.7 119.122 109.276 119.781 109.731 120.544C110.187 121.301 110.495 122.141 110.655 123.065H107.728ZM114.406 136V117.091H117.259V125.308H126.685V117.091H129.548V136H126.685V127.755H117.259V136H114.406ZM132.77 119.547V117.091H147.404V119.547H141.504V136H138.661V119.547H132.77ZM173.224 123.24H170.343C170.233 122.625 170.026 122.083 169.725 121.615C169.423 121.147 169.054 120.75 168.617 120.424C168.18 120.098 167.69 119.852 167.149 119.685C166.613 119.519 166.044 119.436 165.441 119.436C164.351 119.436 163.376 119.71 162.514 120.258C161.658 120.806 160.981 121.609 160.483 122.668C159.99 123.726 159.744 125.019 159.744 126.545C159.744 128.084 159.99 129.383 160.483 130.442C160.981 131.5 161.661 132.301 162.523 132.842C163.385 133.384 164.354 133.655 165.431 133.655C166.029 133.655 166.595 133.575 167.13 133.415C167.672 133.249 168.161 133.005 168.598 132.685C169.035 132.365 169.405 131.974 169.706 131.513C170.014 131.045 170.226 130.509 170.343 129.906L173.224 129.915C173.07 130.845 172.772 131.701 172.328 132.482C171.891 133.258 171.328 133.929 170.639 134.495C169.956 135.055 169.174 135.489 168.294 135.797C167.413 136.105 166.453 136.259 165.413 136.259C163.776 136.259 162.317 135.871 161.037 135.095C159.756 134.313 158.747 133.196 158.008 131.744C157.276 130.291 156.909 128.558 156.909 126.545C156.909 124.527 157.279 122.794 158.017 121.347C158.756 119.895 159.766 118.781 161.046 118.005C162.326 117.223 163.782 116.832 165.413 116.832C166.416 116.832 167.352 116.977 168.22 117.266C169.094 117.549 169.879 117.968 170.574 118.522C171.27 119.07 171.845 119.741 172.301 120.535C172.756 121.323 173.064 122.224 173.224 123.24ZM176.638 136V117.091H179.491V125.308H188.918V117.091H191.78V136H188.918V127.755H179.491V136H176.638ZM195.935 136V117.091H207.79V119.547H198.788V125.308H207.171V127.755H198.788V133.544H207.901V136H195.935ZM227.306 123.24H224.425C224.315 122.625 224.108 122.083 223.807 121.615C223.505 121.147 223.136 120.75 222.699 120.424C222.262 120.098 221.772 119.852 221.231 119.685C220.695 119.519 220.126 119.436 219.523 119.436C218.433 119.436 217.458 119.71 216.596 120.258C215.74 120.806 215.063 121.609 214.565 122.668C214.072 123.726 213.826 125.019 213.826 126.545C213.826 128.084 214.072 129.383 214.565 130.442C215.063 131.5 215.743 132.301 216.605 132.842C217.467 133.384 218.436 133.655 219.513 133.655C220.111 133.655 220.677 133.575 221.212 133.415C221.754 133.249 222.243 133.005 222.68 132.685C223.117 132.365 223.487 131.974 223.788 131.513C224.096 131.045 224.308 130.509 224.425 129.906L227.306 129.915C227.152 130.845 226.854 131.701 226.411 132.482C225.973 133.258 225.41 133.929 224.721 134.495C224.038 135.055 223.256 135.489 222.376 135.797C221.496 136.105 220.535 136.259 219.495 136.259C217.858 136.259 216.399 135.871 215.119 135.095C213.838 134.313 212.829 133.196 212.09 131.744C211.358 130.291 210.991 128.558 210.991 126.545C210.991 124.527 211.361 122.794 212.099 121.347C212.838 119.895 213.848 118.781 215.128 118.005C216.408 117.223 217.864 116.832 219.495 116.832C220.498 116.832 221.434 116.977 222.302 117.266C223.176 117.549 223.961 117.968 224.656 118.522C225.352 119.07 225.927 119.741 226.383 120.535C226.838 121.323 227.146 122.224 227.306 123.24ZM230.72 136V117.091H233.573V126.121H233.804L241.735 117.091H245.327L237.7 125.604L245.354 136H241.92L235.807 127.552L233.573 130.119V136H230.72ZM247.986 136V117.091H250.839V133.544H259.407V136H247.986ZM265.514 117.091V136H262.661V117.091H265.514ZM279.982 122.058C279.884 121.184 279.478 120.507 278.764 120.027C278.05 119.541 277.151 119.298 276.068 119.298C275.292 119.298 274.621 119.421 274.055 119.667C273.489 119.907 273.048 120.239 272.735 120.664C272.427 121.083 272.273 121.56 272.273 122.095C272.273 122.545 272.378 122.932 272.587 123.259C272.802 123.585 273.082 123.859 273.427 124.08C273.778 124.296 274.153 124.477 274.553 124.625C274.954 124.767 275.338 124.884 275.708 124.976L277.554 125.456C278.157 125.604 278.776 125.804 279.41 126.056C280.044 126.308 280.632 126.641 281.173 127.053C281.715 127.466 282.152 127.977 282.485 128.586C282.823 129.195 282.992 129.925 282.992 130.774C282.992 131.845 282.715 132.796 282.161 133.627C281.614 134.458 280.816 135.114 279.77 135.594C278.73 136.074 277.471 136.314 275.994 136.314C274.578 136.314 273.353 136.089 272.319 135.64C271.285 135.191 270.476 134.554 269.891 133.729C269.306 132.898 268.983 131.913 268.921 130.774H271.784C271.839 131.457 272.061 132.027 272.448 132.482C272.842 132.932 273.344 133.267 273.953 133.489C274.569 133.704 275.243 133.812 275.975 133.812C276.782 133.812 277.499 133.686 278.127 133.433C278.761 133.175 279.259 132.818 279.622 132.362C279.985 131.901 280.167 131.362 280.167 130.746C280.167 130.186 280.007 129.728 279.687 129.371C279.373 129.014 278.945 128.718 278.404 128.484C277.868 128.25 277.262 128.044 276.585 127.866L274.35 127.256C272.836 126.844 271.636 126.238 270.749 125.438C269.869 124.637 269.429 123.579 269.429 122.261C269.429 121.172 269.725 120.221 270.316 119.408C270.906 118.596 271.707 117.965 272.716 117.516C273.726 117.06 274.864 116.832 276.132 116.832C277.413 116.832 278.542 117.057 279.521 117.506C280.506 117.956 281.281 118.574 281.847 119.362C282.414 120.144 282.709 121.043 282.734 122.058H279.982ZM285.469 119.547V117.091H300.103V119.547H294.203V136H291.36V119.547H285.469Z" fill="#AF0060"/>
<rect x="130" y="47" width="19" height="10" fill="#6C0089"/>
<rect x="98" y="42.6586" width="58.7356" height="5" transform="rotate(-0.743335 98 42.6586)" fill="white"/>
<rect x="109" y="37" width="30" height="5" fill="#EF476F"/>
<rect x="94" y="47" width="36" height="7" fill="#6C0089"/>
<rect x="105" y="57" width="23" height="5" fill="#EF476F"/>
<rect x="95" y="54" width="35" height="3" fill="white"/>
<rect x="130.448" y="52" width="19.8337" height="5" transform="rotate(29.319 130.448 52)" fill="white"/>
<rect x="86" y="47" width="6" height="5" fill="#6C0089"/>
<rect x="78" y="47" width="6" height="5" fill="#6C0089"/>
<rect x="95" y="57" width="6" height="5" fill="#EF476F"/>
<rect x="99" y="37" width="6" height="5" fill="#EF476F"/>
<ellipse cx="199.071" cy="52.1477" rx="50" ry="47" transform="rotate(-0.742364 199.071 52.1477)" fill="url(#paint0_linear_1_60)"/>
<ellipse cx="199.071" cy="52.1477" rx="30.8219" ry="30.6522" transform="rotate(-0.742364 199.071 52.1477)" fill="white"/>
<rect x="196.302" y="34.1704" width="41.0959" height="6.68462" transform="rotate(-0.742364 196.302 34.1704)" fill="white"/>
<path d="M205.369 29L235.366 28.6109L235.431 33.6104L205.433 33.9996L205.369 29Z" fill="url(#paint1_linear_1_60)"/>
<rect x="192.372" y="40.9078" width="38.5732" height="5" transform="rotate(-0.743335 192.372 40.9078)" fill="url(#paint2_linear_1_60)"/>
<rect x="208.089" y="50.8562" width="23" height="5" transform="rotate(-0.743335 208.089 50.8562)" fill="url(#paint3_linear_1_60)"/>
<rect x="198.15" y="46.0379" width="50.7662" height="5" transform="rotate(-0.743335 198.15 46.0379)" fill="white"/>
<rect x="184.212" y="41.1111" width="6" height="5" transform="rotate(-0.743335 184.212 41.1111)" fill="url(#paint4_linear_1_60)"/>
<rect x="176.212" y="41.0086" width="6" height="5" transform="rotate(-0.743335 176.212 41.0086)" fill="url(#paint5_linear_1_60)"/>
<rect x="198.082" y="51.2897" width="6" height="5" transform="rotate(-0.743335 198.082 51.2897)" fill="url(#paint6_linear_1_60)"/>
<rect x="196.364" y="29.2658" width="6" height="5" transform="rotate(-0.743335 196.364 29.2658)" fill="url(#paint7_linear_1_60)"/>
<path d="M152.366 37L174.238 50.754L167.47 61.5168L152.37 52.0215C148.63 49.6695 147.505 44.7308 149.857 40.9906L152.366 37Z" fill="white"/>
<path d="M128 54.0473C131.929 47.4985 140.423 45.3746 146.971 49.3035L165.647 60.5078C172.196 64.4367 174.32 72.9305 170.391 79.4793V79.4793L128 54.0473V54.0473Z" fill="url(#paint8_angular_1_60)"/>
<defs>
<linearGradient id="paint0_linear_1_60" x1="199.071" y1="5.14771" x2="199.071" y2="99.1477" gradientUnits="userSpaceOnUse">
<stop stop-color="#6C0089"/>
<stop offset="1" stop-color="#AF0060"/>
</linearGradient>
<linearGradient id="paint1_linear_1_60" x1="220.367" y1="28.8054" x2="220.432" y2="33.805" gradientUnits="userSpaceOnUse">
<stop stop-color="#6C0089"/>
<stop offset="1" stop-color="#AF0060"/>
</linearGradient>
<linearGradient id="paint2_linear_1_60" x1="211.659" y1="40.9078" x2="211.659" y2="45.9078" gradientUnits="userSpaceOnUse">
<stop stop-color="#6C0089"/>
<stop offset="1" stop-color="#AF0060"/>
</linearGradient>
<linearGradient id="paint3_linear_1_60" x1="219.589" y1="50.8562" x2="219.589" y2="55.8562" gradientUnits="userSpaceOnUse">
<stop stop-color="#6C0089"/>
<stop offset="1" stop-color="#AF0060"/>
</linearGradient>
<linearGradient id="paint4_linear_1_60" x1="187.212" y1="41.1111" x2="187.212" y2="46.1111" gradientUnits="userSpaceOnUse">
<stop stop-color="#6C0089"/>
<stop offset="1" stop-color="#AF0060"/>
</linearGradient>
<linearGradient id="paint5_linear_1_60" x1="179.212" y1="41.0086" x2="179.212" y2="46.0086" gradientUnits="userSpaceOnUse">
<stop stop-color="#6C0089"/>
<stop offset="1" stop-color="#AF0060"/>
</linearGradient>
<linearGradient id="paint6_linear_1_60" x1="201.082" y1="51.2897" x2="201.082" y2="56.2897" gradientUnits="userSpaceOnUse">
<stop stop-color="#6C0089"/>
<stop offset="1" stop-color="#AF0060"/>
</linearGradient>
<linearGradient id="paint7_linear_1_60" x1="199.364" y1="29.2658" x2="199.364" y2="34.2658" gradientUnits="userSpaceOnUse">
<stop stop-color="#6C0089"/>
<stop offset="1" stop-color="#AF0060"/>
</linearGradient>
<radialGradient id="paint8_angular_1_60" cx="0" cy="0" r="1" gradientUnits="userSpaceOnUse" gradientTransform="translate(152.752 60.8345) rotate(120.961) scale(6.91394 24.7173)">
<stop stop-color="#6C0089"/>
<stop offset="0.126041" stop-color="#6C0089"/>
<stop offset="0.360316" stop-color="#6C0089"/>
<stop offset="0.521875" stop-color="#6C0089"/>
<stop offset="0.542708" stop-color="#670B3E"/>
<stop offset="0.792708" stop-color="#B1156A"/>
</radialGradient>
</defs>
</svg>
